HIERARCHY
ROOT root
{
	OFFSET 0.000000 0.000000 0.000000
	CHANNELS 6 Xposition Yposition Zposition Zrotation Yrotation Xrotation
	JOINT lhip
	{
		OFFSET 0.058581 -0.082280 -0.017664
		CHANNELS 3 Zrotation Yrotation Xrotation
		JOINT lknee
		{
			OFFSET 0.043451 -0.386469 0.008037
			CHANNELS 3 Zrotation Yrotation Xrotation
			JOINT lankle
			{
				OFFSET -0.014790 -0.426874 -0.037428
				CHANNELS 3 Zrotation Yrotation Xrotation
				JOINT ltoe
				{
					OFFSET 0.041054 -0.060286 0.122042
					CHANNELS 3 Zrotation Yrotation Xrotation
					End Site
					{
						OFFSET 0.000000 0.000000 0.000000
					}
				}
			}
		}
	}
	JOINT rhip
	{
		OFFSET -0.060310 -0.090513 -0.013543
		CHANNELS 3 Zrotation Yrotation Xrotation
		JOINT rknee
		{
			OFFSET -0.043257 -0.383688 -0.004843
			CHANNELS 3 Zrotation Yrotation Xrotation
			JOINT rankle
			{
				OFFSET 0.019056 -0.420046 -0.034562
				CHANNELS 3 Zrotation Yrotation Xrotation
				JOINT rtoe
				{
					OFFSET -0.034840 -0.062106 0.130323
					CHANNELS 3 Zrotation Yrotation Xrotation
					End Site
					{
						OFFSET 0.000000 0.000000 0.000000
					}
				}
			}
		}
	}
	JOINT lowerback
	{
		OFFSET 0.004439 0.124404 -0.038385
		CHANNELS 3 Zrotation Yrotation Xrotation
		JOINT upperback
		{
			OFFSET 0.004488 0.137956 0.026820
			CHANNELS 3 Zrotation Yrotation Xrotation
			JOINT chest
			{
				OFFSET -0.002265 0.056032 0.002855
				CHANNELS 3 Zrotation Yrotation Xrotation
				JOINT lowerneck
				{
					OFFSET -0.013390 0.211636 -0.033468
					CHANNELS 3 Zrotation Yrotation Xrotation
					JOINT upperneck
					{
						OFFSET 0.010113 0.088937 0.050410
						CHANNELS 3 Zrotation Yrotation Xrotation
						End Site
						{
							OFFSET 0.000000 0.000000 0.000000
						}
					}
				}
				JOINT lclavicle
				{
					OFFSET 0.071702 0.114000 -0.018898
					CHANNELS 3 Zrotation Yrotation Xrotation
					JOINT lshoulder
					{
						OFFSET 0.122921 0.045205 -0.019046
						CHANNELS 3 Zrotation Yrotation Xrotation
						JOINT lelbow
						{
							OFFSET 0.255332 -0.015649 -0.022946
							CHANNELS 3 Zrotation Yrotation Xrotation
							JOINT lwrist
							{
								OFFSET 0.265709 0.012698 -0.007375
								CHANNELS 3 Zrotation Yrotation Xrotation
								End Site
								{
									OFFSET 0.000000 0.000000 0.000000
								}
							}
						}
					}
				}
				JOINT rclavicle
				{
					OFFSET -0.082954 0.112472 -0.023707
					CHANNELS 3 Zrotation Yrotation Xrotation
					JOINT rshoulder
					{
						OFFSET -0.113228 0.046853 -0.008472
						CHANNELS 3 Zrotation Yrotation Xrotation
						JOINT relbow
						{
							OFFSET -0.260127 -0.014369 -0.031269
							CHANNELS 3 Zrotation Yrotation Xrotation
							JOINT rwrist
							{
								OFFSET -0.269108 0.006794 -0.006027
								CHANNELS 3 Zrotation Yrotation Xrotation
								End Site
								{
									OFFSET 0.000000 0.000000 0.000000
								}
							}
						}
					}
				}
			}
		}
	}
}
MOTION
Frames: 11
Frame Time: 0.033333
-1.983284 1.355186 0.982696 163.106088 -0.663604 80.753302 0.448680 5.482549 18.531287 -1.471918 -13.553505 9.899253 -0.822314 21.892460 -18.209075 0.000000 -0.000000 0.000000 2.388642 -7.169391 -19.502763 -5.006388 -11.650135 -0.431454 -5.285822 -30.066749 -4.765652 0.000000 -0.000000 0.000000 -7.007073 -5.841791 4.964500 1.717233 -8.587710 3.177903 1.606473 -2.875177 -3.240712 2.212364 -12.674968 -2.674233 17.033671 -2.367367 1.828323 -4.570523 -26.859812 -3.693974 -10.550489 -38.495812 -8.017270 1.215840 -8.280111 -2.561034 -11.777990 -1.856179 22.723218 -0.498514 20.806083 -6.826585 12.149246 22.815221 -13.826983 -8.967516 11.620884 -5.503619 6.141884 -0.002161 14.795455 
-1.968435 1.374747 0.981202 163.425057 -1.073235 81.771062 0.720076 4.990074 17.975655 -2.217922 -13.900809 12.328588 -1.230413 21.567042 -17.457047 0.000000 -0.000000 0.000000 2.391239 -7.755929 -19.628956 -4.696038 -12.520390 0.403051 -5.920214 -30.219690 -5.303063 0.000000 -0.000000 0.000000 -7.490728 -6.471506 3.602713 1.987722 -8.810392 4.285252 2.047416 -3.112730 -4.150007 3.276181 -12.900300 -4.003381 16.819793 -2.740141 2.608973 -4.122441 -27.009120 -3.699033 -10.628339 -39.020912 -8.344009 1.565642 -7.679114 -2.154856 -12.570159 -1.496364 22.333402 -0.691306 20.426537 -7.665177 12.599572 22.824931 -13.534467 -9.558231 11.224214 -6.037653 6.147704 0.045754 15.959908 
-1.951669 1.397897 0.977840 162.923666 -1.746214 82.337153 1.196000 4.928806 18.235148 -3.310698 -13.544634 14.531647 -1.836834 20.907085 -15.429289 0.000000 -0.000000 0.000000 2.668652 -7.964699 -18.545850 -4.712598 -12.437145 0.672893 -6.294518 -30.453998 -5.164405 0.000000 -0.000000 0.000000 -7.740820 -6.326360 2.909488 2.467956 -9.507866 3.945314 2.265841 -3.340625 -4.281746 3.066958 -13.113235 -3.493886 17.290171 -2.375515 2.103085 -4.498681 -27.575546 -2.583531 -9.391523 -38.471111 -8.905073 1.218343 -7.795766 -2.423295 -12.277858 -1.548894 22.276227 -0.650372 20.929878 -6.648032 11.697625 22.504489 -14.060404 -9.877925 11.137632 -6.140681 5.740781 0.241851 14.959626 
-1.932883 1.422470 0.975636 162.411429 -2.592106 82.988043 1.778117 4.679565 17.890018 -4.774047 -12.921497 17.751578 -2.778168 19.775275 -11.962059 0.000000 -0.000000 0.000000 2.974218 -8.171435 -16.811264 -4.979231 -12.905532 -0.356456 -7.448594 -30.771655 -3.391587 0.000000 -0.000000 0.000000 -8.145582 -6.465278 1.894175 2.867733 -10.103361 3.886293 2.606353 -3.676040 -4.803927 3.435846 -13.175002 -3.344331 17.227488 -1.837434 1.990589 -4.467342 -27.867238 -2.144793 -9.397709 -38.265575 -8.937997 1.091048 -7.623884 -2.202132 -12.008810 -1.332051 21.877061 -0.889780 20.864209 -7.352641 12.027454 23.271907 -13.866902 -9.814383 10.288629 -6.090005 5.086745 -0.003704 15.022365 
-1.911968 1.448182 0.974821 161.231409 -3.040661 83.195598 3.358626 4.468817 16.830753 -6.871802 -10.967028 22.563099 -4.376662 17.801143 -5.364027 0.000000 -0.000000 0.000000 3.311332 -7.326631 -14.685377 -4.799945 -12.030450 -1.774772 -9.398025 -29.126988 1.144812 0.000000 -0.000000 0.000000 -8.021626 -6.289585 1.731828 3.487346 -10.600674 2.675743 2.992013 -3.829219 -4.653107 3.875152 -12.824323 -3.829929 17.036672 -2.127861 2.613981 -5.477225 -28.737829 -1.391590 -9.230831 -37.988706 -8.373759 1.482153 -7.264898 -2.450048 -11.471245 -1.384843 20.716230 0.456921 21.357037 -6.611052 10.743566 23.307303 -14.089911 -10.136130 11.151388 -6.784755 4.434931 -0.630627 15.616837 
-1.892176 1.472487 0.979264 159.055516 -3.491168 82.653660 4.504377 3.833817 14.619273 -9.094852 -8.347982 29.841186 -5.383072 16.177044 4.549375 0.000000 -0.000000 0.000000 3.211031 -5.959715 -12.832203 -3.973259 -9.996623 -0.027188 -10.574680 -26.910466 3.111264 0.000000 -0.000000 0.000000 -7.639873 -6.099320 2.046103 4.085224 -10.859305 1.611216 3.137625 -3.701690 -4.269120 3.728512 -13.023674 -3.052295 17.626599 -1.675005 2.407395 -6.545615 -29.870735 0.504768 -7.730973 -36.902227 -10.290979 0.643648 -7.732266 -1.856001 -10.342637 -1.251109 20.118214 1.529560 22.290308 -5.597888 10.243309 24.133869 -16.168519 -10.064193 11.064673 -7.721301 3.132592 -0.978878 18.137309 
-1.871281 1.494512 0.984621 156.766766 -3.778864 81.432594 5.922983 3.152113 12.326633 -11.287174 -6.327835 37.481411 -5.458106 14.975232 11.821488 0.000000 -0.000000 0.000000 3.293901 -4.514827 -9.915948 -3.233776 -8.077156 1.282068 -12.407037 -25.711850 4.307945 0.000000 -0.000000 0.000000 -7.739002 -5.728577 2.985165 4.644928 -11.002168 1.657304 3.783293 -3.767113 -4.393014 4.444699 -12.325145 -3.166428 17.471324 -1.857074 2.777094 -6.390062 -31.037551 1.390940 -7.159672 -36.634053 -11.111727 0.654742 -7.368948 -0.640690 -11.218271 -2.059257 19.562747 1.832968 22.848517 -4.818053 10.253481 24.961682 -16.387805 -9.874526 10.954054 -6.992443 3.490346 -1.624997 18.094964 
-1.851627 1.513778 0.989820 154.009043 -4.526795 80.994856 5.971692 2.657556 9.154390 -13.305485 -4.869074 44.087883 -3.980219 14.050314 14.295891 0.000000 -0.000000 0.000000 3.682694 -3.881173 -8.392146 -3.297414 -5.883482 3.228967 -13.891974 -24.771772 3.585839 0.000000 -0.000000 0.000000 -8.289038 -5.217484 2.630707 5.139701 -11.099612 2.453752 4.170815 -3.723293 -4.860235 5.244776 -11.840074 -3.179065 17.259813 -1.791246 4.039686 -5.509763 -31.561865 1.508957 -7.136411 -36.860450 -10.864500 0.186722 -7.915438 0.224548 -9.133682 -1.873038 16.792814 2.380227 22.865186 -5.387026 11.211736 26.155968 -14.815262 -9.733918 10.661179 -6.404490 1.649324 -1.392458 17.899394 
-1.832860 1.532826 0.993560 150.315755 -5.256074 80.545325 5.523219 2.496959 6.754931 -13.606927 -2.814078 48.030452 -3.343246 14.907993 11.382091 0.000000 -0.000000 0.000000 3.900077 -3.876955 -6.042578 -2.887076 -4.245333 3.751261 -12.865062 -23.632238 1.070785 0.000000 -0.000000 0.000000 -7.689818 -4.637166 2.217510 5.082329 -11.236890 2.258906 4.026921 -3.395746 -4.334010 4.921919 -11.020626 -1.881491 17.237268 -1.374507 3.989299 -5.402929 -31.361392 0.839736 -6.774457 -37.389772 -11.737367 0.077360 -7.772493 0.761544 -9.256936 -1.925423 17.606658 2.168283 23.719330 -5.775350 11.816944 26.629096 -14.678253 -9.593334 10.228694 -6.314527 1.804480 -1.295983 17.680425 
-1.814033 1.550499 0.997493 146.681219 -5.755929 79.738612 5.072582 2.169728 4.990217 -12.747988 -1.084238 49.583711 -2.310916 16.193481 8.299822 0.000000 -0.000000 0.000000 4.235340 -3.679458 -2.785555 -2.735187 -2.151853 3.426062 -11.886831 -22.829680 -0.683438 0.000000 -0.000000 0.000000 -7.251498 -3.688883 2.370609 5.275401 -11.258385 3.093761 4.126410 -3.179484 -4.854997 5.180582 -11.501386 -3.092670 15.907325 -2.302493 5.201868 -5.425240 -31.226976 0.999581 -6.243851 -37.918120 -12.479746 0.343120 -7.999023 0.160124 -10.170460 -1.613402 17.123692 2.731227 24.012795 -4.761886 10.582682 26.817829 -14.975845 -9.709621 10.395886 -6.732258 2.362691 -1.952059 17.393675 
-1.795043 1.566666 1.001281 143.144771 -6.564292 79.293537 4.185129 1.871963 3.266593 -11.687784 -0.344255 48.731091 -1.520359 16.991104 3.329505 0.000000 -0.000000 0.000000 3.985348 -3.682707 0.069990 -2.561377 -0.094819 2.975170 -9.814390 -22.112451 -3.199085 0.000000 -0.000000 0.000000 -6.931513 -3.187252 2.348135 5.123780 -11.596755 3.356381 3.916157 -2.894045 -5.085288 5.395757 -11.165748 -3.162379 15.783949 -2.080117 6.158120 -5.652434 -30.568656 0.556895 -6.125100 -38.318579 -12.488132 0.159679 -7.755736 0.233272 -11.163736 -2.056610 17.043161 3.299917 24.091720 -4.554055 10.527936 27.766359 -14.365957 -10.249214 10.033011 -6.925451 2.824171 -1.435264 17.236979 
